<?xml version="1.0" encoding="utf-8"?>
<!-- Generator: Adobe Illustrator 18.0.0, SVG Export Plug-In . SVG Version: 6.00 Build 0)  -->
<!DOCTYPE svg PUBLIC "-//W3C//DTD SVG 1.1//EN" "http://www.w3.org/Graphics/SVG/1.1/DTD/svg11.dtd" [
	<!ENTITY ns_extend "http://ns.adobe.com/Extensibility/1.0/">
	<!ENTITY ns_ai "http://ns.adobe.com/AdobeIllustrator/10.0/">
	<!ENTITY ns_graphs "http://ns.adobe.com/Graphs/1.0/">
	<!ENTITY ns_vars "http://ns.adobe.com/Variables/1.0/">
	<!ENTITY ns_imrep "http://ns.adobe.com/ImageReplacement/1.0/">
	<!ENTITY ns_sfw "http://ns.adobe.com/SaveForWeb/1.0/">
	<!ENTITY ns_custom "http://ns.adobe.com/GenericCustomNamespace/1.0/">
	<!ENTITY ns_adobe_xpath "http://ns.adobe.com/XPath/1.0/">
]>
<svg version="1.1" id="Layer_1" xmlns:x="&ns_extend;" xmlns:i="&ns_ai;" xmlns:graph="&ns_graphs;"
	 xmlns="http://www.w3.org/2000/svg" xmlns:xlink="http://www.w3.org/1999/xlink" x="0px" y="0px"
	 viewBox="365.6 439.6 143.8 138.2" enable-background="new 365.6 439.6 143.8 138.2" xml:space="preserve">
<metadata>
	<sfw  xmlns="&ns_sfw;">
		<slices></slices>
		<sliceSourceBounds  width="143.8" height="138.2" y="1470.2" x="365.6" bottomLeftOrigin="true"></sliceSourceBounds>
	</sfw>
</metadata>
<g>
	<path fill="none" stroke="#FF4399" stroke-width="5" stroke-miterlimit="10" d="M492.7,554.6V456c0-7.6-6.2-13.8-13.8-13.8h0
		c-7.6,0-13.8,6.2-13.8,13.8v98.6v-71.7v78.6c0,7.6-6.2,13.8-13.8,13.8h0c-7.6,0-13.8-6.2-13.8-13.8v-78.6l0,51.6v-78.6
		c0-7.6-6.2-13.8-13.8-13.8h0c-7.6,0-13.8,6.2-13.8,13.8v78.6l0-71.7v98.6c0,7.6-6.2,13.8-13.8,13.8h0c-7.6,0-13.8-6.2-13.8-13.8
		v-98.6"/>
	<circle fill="none" stroke="#FF4399" stroke-width="2.5" stroke-miterlimit="10" cx="370.8" cy="492.1" r="4"/>
	<circle fill="none" stroke="#FF4399" stroke-width="2.5" stroke-miterlimit="10" cx="370.8" cy="507.7" r="4"/>
	<circle fill="none" stroke="#FF4399" stroke-width="2.5" stroke-miterlimit="10" cx="370.8" cy="476.5" r="4"/>
	<circle fill="none" stroke="#FF4399" stroke-width="2.5" stroke-miterlimit="10" cx="504.1" cy="526.2" r="4"/>
	<circle fill="none" stroke="#FF4399" stroke-width="2.5" stroke-miterlimit="10" cx="504.1" cy="541.9" r="4"/>
	<circle fill="none" stroke="#FF4399" stroke-width="2.5" stroke-miterlimit="10" cx="504.1" cy="510.6" r="4"/>
</g>
</svg>
