<?xml version="1.0" encoding="utf-8"?>
<!-- Generator: Adobe Illustrator 18.0.0, SVG Export Plug-In . SVG Version: 6.00 Build 0)  -->
<!DOCTYPE svg PUBLIC "-//W3C//DTD SVG 1.1//EN" "http://www.w3.org/Graphics/SVG/1.1/DTD/svg11.dtd" [
	<!ENTITY ns_extend "http://ns.adobe.com/Extensibility/1.0/">
	<!ENTITY ns_ai "http://ns.adobe.com/AdobeIllustrator/10.0/">
	<!ENTITY ns_graphs "http://ns.adobe.com/Graphs/1.0/">
	<!ENTITY ns_vars "http://ns.adobe.com/Variables/1.0/">
	<!ENTITY ns_imrep "http://ns.adobe.com/ImageReplacement/1.0/">
	<!ENTITY ns_sfw "http://ns.adobe.com/SaveForWeb/1.0/">
	<!ENTITY ns_custom "http://ns.adobe.com/GenericCustomNamespace/1.0/">
	<!ENTITY ns_adobe_xpath "http://ns.adobe.com/XPath/1.0/">
]>
<svg version="1.1" id="Layer_1" xmlns:x="&ns_extend;" xmlns:i="&ns_ai;" xmlns:graph="&ns_graphs;"
	 xmlns="http://www.w3.org/2000/svg" xmlns:xlink="http://www.w3.org/1999/xlink" x="0px" y="0px" viewBox="0 0 615.4 95"
	 enable-background="new 0 0 615.4 95" xml:space="preserve">
<metadata>
	<sfw  xmlns="&ns_sfw;">
		<slices></slices>
		<sliceSourceBounds  height="16383" width="16383" x="-7795" y="-8498" bottomLeftOrigin="true"></sliceSourceBounds>
	</sfw>
</metadata>
<g>
	<path fill="#FFFFFF" d="M0,9.1C0,5.2,3.2,2,7.1,2c3.9,0,7,3.2,7,7.1c0,3.9-3.1,7-7,7C3.2,16.1,0,13,0,9.1z M1.8,93.4V25.8h10.5
		v67.6H1.8z"/>
	<path fill="#FFFFFF" d="M89.6,93.4V49.1c0-12-6.2-15.7-15.3-15.7c-8.3,0-16,5-20,10.5v49.4H43.8V25.8h10.5v9.8
		c4.8-5.7,14-11.5,24.2-11.5c14,0,21.4,7.1,21.4,21.8v47.5H89.6z"/>
	<path fill="#FFFFFF" d="M133.7,79.2V35h-11.2v-9.2h11.2V7.3h10.6v18.5H158V35h-13.7v42c0,5,2.2,8.7,6.7,8.7c3.1,0,5.7-1.4,7.1-2.9
		l3.1,8c-2.7,2.5-6.4,4.3-12.5,4.3C138.7,95,133.7,89.3,133.7,79.2z"/>
	<path fill="#FFFFFF" d="M277.2,93.4V25.8h10.5v10.8c5.5-7,13.3-12.3,22.5-12.3V35c-1.3-0.1-2.5-0.3-4.1-0.3
		c-6.6,0-15.4,5.3-18.5,10.8v47.9H277.2z"/>
	<path fill="#FF4399" d="M336.2,93.4V0h10.5v93.4H336.2z"/>
	<path fill="#2CFFF4" d="M422.9,93.4v-9.5c-5.2,5.9-14,11.2-24.1,11.2c-14.1,0-21.6-7-21.6-21.6V25.8h10.5v44.5
		c0,11.9,6,15.4,15.3,15.4c8.1,0,16-4.8,19.9-10.2V25.8h10.5v67.6H422.9z"/>
	<path fill="#29FF7F" d="M512.7,93.4V83.3c-5,6.9-13.3,11.8-22.8,11.8c-17.6,0-30.1-13.4-30.1-35.4c0-21.7,12.5-35.6,30.1-35.6
		c9.1,0,17.4,4.5,22.8,11.9V0h10.5v93.4H512.7z M512.7,74.9V44.4c-3.6-5.9-11.9-10.9-20.2-10.9c-13.7,0-21.8,11.2-21.8,26.2
		c0,15,8.1,26,21.8,26C500.8,85.7,509,80.8,512.7,74.9z"/>
	<path fill="#FFFFFF" d="M208.8,55.2V63h34.3v0h6.6v-2.7c0-20.3-12-36.3-32.5-36.3C198,24.1,184,39.9,184,59.5
		c0,21.1,14.4,35.6,34.6,35.6c10.9,0,20-3.8,26.9-10.5l-5-6.9c-5.5,5.6-13.2,8.7-21,8.7c-14.6,0-23.4-10.6-24.2-23.4
		c0,0-0.2-2.5-0.2-4.4c0-2,0.1-3.4,0.1-3.4c0.6-10.2,7.7-22.4,22.1-22.4c15.4,0,22.1,12.5,22.3,22.4v0H208.8z"/>
	<path fill="#6E7CFF" d="M574.5,55.2V63h34.3v0h6.6v-2.7c0-20.3-12-36.3-32.5-36.3c-19.3,0-33.3,15.8-33.3,35.4
		c0,21.1,14.4,35.6,34.6,35.6c10.9,0,20-3.8,26.9-10.5l-5-6.9c-5.5,5.6-13.2,8.7-21,8.7c-14.6,0-23.4-10.6-24.2-23.4
		c0,0-0.2-2.5-0.2-4.4c0-2,0.1-3.4,0.1-3.4c0.6-10.2,7.7-22.4,22.1-22.4c15.4,0,22.1,12.5,22.3,22.4v0H574.5z"/>
</g>
</svg>
